<?xml version="1.0" standalone="no"?>
<!DOCTYPE svg PUBLIC "-//W3C//DTD SVG 20010904//EN"
 "http://www.w3.org/TR/2001/REC-SVG-20010904/DTD/svg10.dtd">
<svg version="1.0" xmlns="http://www.w3.org/2000/svg"
 width="146.000000pt" height="146.000000pt" viewBox="0 0 146.000000 146.000000"
 preserveAspectRatio="xMidYMid meet">
<metadata>
Created by potrace 1.11, written by Peter Selinger 2001-2013
</metadata>
<g transform="translate(0.000000,146.000000) scale(0.100000,-0.100000)"
fill="#000000" stroke="none">
<path d="M83 935 l1 -525 323 -205 323 -205 324 205 324 206 0 524 0 525 -647
0 -648 0 0 -525z m739 133 l3 -133 130 1 130 1 -2 -58 c-1 -33 -2 -75 -2 -94
l-1 -35 -117 1 c-65 0 -124 0 -130 0 -10 -1 -13 -34 -13 -129 l0 -128 -90 -1
-90 0 0 128 c0 127 0 129 -22 130 -13 0 -68 0 -123 0 -54 0 -104 4 -110 9 -6
5 -9 42 -7 92 l3 85 127 -1 127 -1 3 133 3 132 89 0 89 0 3 -132z"/>
</g>
</svg>
